<?xml version="1.0" encoding="UTF-8"?>
<svg xmlns="http://www.w3.org/2000/svg" viewBox="0 0 64 64" width="64" height="64">
  <!-- Shield shape -->
  <path d="M32 4 L56 14 L56 36 C56 50 44 60 32 62 C20 60 8 50 8 36 L8 14 Z"
        fill="#6d4aff" />
  <!-- Cloud shape -->
  <path d="M22 38 Q18 38 18 34 Q18 30 22 30 Q22 26 26 26 Q28 24 32 24 Q38 24 40 28 Q44 28 44 32 Q44 36 40 38 Z"
        fill="white" opacity="0.9"/>
  <!-- Down arrow -->
  <path d="M29 36 L29 42 L26 42 L32 48 L38 42 L35 42 L35 36 Z"
        fill="#6d4aff"/>
</svg>
